<svg width="24" height="24" viewBox="0 0 24 24" fill="none" xmlns="http://www.w3.org/2000/svg">
<path d="M9.60976 18.9375H4.80526C3.86776 18.9375 3.04726 18.258 3.00076 17.2965C4.40701 16.242 5.29801 14.9295 5.88376 13.476C6.44626 12.0225 6.65701 10.4287 6.77476 8.74123C6.86851 7.59298 7.61851 6.56173 8.64976 5.78773C9.23551 5.36548 9.86851 5.01448 10.5248 4.80298C10.5248 4.73248 10.4775 4.66198 10.4775 4.61548C10.4775 3.77173 11.157 3.11548 12.0008 3.11548C12.8445 3.11548 13.524 3.77173 13.524 4.61548C13.524 4.66273 13.4768 4.75648 13.4768 4.80298C14.133 5.01373 14.7893 5.36548 15.375 5.76373C16.4063 6.51373 17.2268 7.54498 17.2268 8.66998C17.3205 10.3342 17.5785 11.9985 18.1643 13.4512C18.75 14.928 19.641 16.2637 21 17.295C20.9528 18.2557 20.133 18.936 19.1955 18.936H14.391C14.1563 20.061 13.1955 20.8815 12.024 20.8815C10.8525 20.8815 9.86776 20.061 9.60976 18.936V18.9375ZM5.41426 17.2972H18.5865C17.532 16.125 16.8053 14.7892 16.383 13.3597C15.9375 11.9535 15.7268 10.4535 15.633 8.90623C15.5858 8.15623 15 7.47673 14.2733 6.96073C13.5698 6.44473 12.726 6.16348 12.0233 6.16348C11.367 6.16348 10.5 6.49198 9.75001 6.96073C9.02326 7.42948 8.41426 8.13298 8.39026 8.83573C8.31976 10.359 8.08576 11.883 7.66351 13.3125C7.19476 14.766 6.44476 16.125 5.41351 17.2972H5.41426ZM12.0233 20.133C12.1403 20.133 12.1875 20.0625 12.1875 19.9455C12.1875 19.8045 12.1403 19.7347 12.0233 19.7347C11.2733 19.7347 10.7108 19.149 10.7108 18.4222C10.7108 18.2812 10.6403 18.2115 10.5233 18.2115C10.3823 18.2115 10.2885 18.282 10.2885 18.4222C10.2885 19.3597 11.0618 20.133 12.0233 20.133Z" fill="black"/>
</svg>
