<svg width="41" height="41" viewBox="0 0 41 41" fill="none" xmlns="http://www.w3.org/2000/svg">
<g opacity="0.5">
<path d="M13.9528 20.0464C13.61 20.0464 13.2673 20.0073 12.9303 19.9285C11.7151 19.6441 10.6574 18.8786 9.69582 17.5883C9.48441 17.3045 9.54335 16.9035 9.82715 16.6921C10.1109 16.4807 10.512 16.539 10.7234 16.8228C11.5069 17.876 12.3006 18.4653 13.2218 18.6812C14.193 18.9093 15.2424 18.6684 16.0995 18.022C16.4672 17.7453 16.8029 17.3795 17.1866 16.8356C17.3916 16.5473 17.7908 16.4775 18.0797 16.6825C18.3686 16.8862 18.4371 17.286 18.2334 17.5755C17.9451 17.9836 17.4903 18.5794 16.8702 19.0458C16.0009 19.7011 14.9765 20.0464 13.9528 20.0464Z" fill="white"/>
<path d="M26.9908 20.0464C26.6481 20.0464 26.3053 20.0073 25.9677 19.9285C24.7525 19.6448 23.6942 18.8786 22.7332 17.5883C22.5218 17.3045 22.5807 16.9035 22.8639 16.6921C23.1483 16.4801 23.5487 16.5396 23.7601 16.8228C24.5443 17.876 25.338 18.4654 26.2586 18.6813C27.2317 18.9093 28.2785 18.6678 29.1363 18.022C29.5033 17.7453 29.839 17.3801 30.2234 16.8356C30.4271 16.5473 30.8262 16.4781 31.1164 16.6825C31.4054 16.8862 31.4745 17.286 31.2695 17.5755C30.9813 17.9836 30.5264 18.58 29.9063 19.0458C29.0382 19.7011 28.0139 20.0464 26.9908 20.0464Z" fill="white"/>
<path d="M20.4891 20.0464C20.1458 20.0464 19.8037 20.0073 19.466 19.9285C18.4603 19.6934 17.5762 19.1406 16.7633 18.2392C16.5262 17.9765 16.5474 17.571 16.81 17.3346C17.0727 17.0963 17.4776 17.1187 17.7146 17.3808C18.3462 18.0816 19.0144 18.507 19.7575 18.6806C20.7294 18.9086 21.7781 18.6671 22.6352 18.0214C22.8537 17.8574 23.0625 17.6588 23.2758 17.4128C23.5065 17.1444 23.9133 17.1162 24.1791 17.3474C24.4469 17.5787 24.4757 17.9836 24.2445 18.2507C23.9709 18.5666 23.6967 18.826 23.4053 19.0451C22.5372 19.7011 21.5128 20.0464 20.4891 20.0464Z" fill="white"/>
<path d="M15.9477 11.1328C15.1078 11.1328 14.4467 11.1296 14.0841 11.1219C13.7305 11.1142 13.4493 10.8215 13.4569 10.4679C13.4646 10.1187 13.7497 9.84069 14.0976 9.84069C14.1021 9.84069 14.1072 9.84069 14.111 9.84069C15.2385 9.86567 19.3526 9.84261 22.6595 9.82531C24.4539 9.8157 26.0503 9.80737 26.9024 9.80737C27.2566 9.80737 27.543 10.0937 27.543 10.448C27.543 10.8023 27.2566 11.0886 26.9024 11.0886C26.0516 11.0886 24.4578 11.0976 22.6666 11.1066C20.402 11.1181 17.7594 11.1328 15.9477 11.1328Z" fill="white"/>
<path d="M10.2097 17.846C10.102 17.846 9.99314 17.8191 9.89256 17.7614C9.58506 17.5865 9.47872 17.1951 9.65361 16.8876C10.0854 16.1317 10.8439 14.8242 11.5973 13.5269C12.3718 12.1925 13.1412 10.8677 13.5409 10.1649C13.7158 9.85739 14.1066 9.74976 14.4147 9.92465C14.7222 10.0995 14.8292 10.491 14.655 10.7978C14.2539 11.5032 13.4826 12.8318 12.7062 14.1701C11.9547 15.4648 11.1975 16.7691 10.767 17.5231C10.6485 17.7307 10.432 17.846 10.2097 17.846Z" fill="white"/>
<path d="M30.7904 17.8126C30.5674 17.8126 30.3515 17.6967 30.2337 17.4898C29.8096 16.7466 29.069 15.4712 28.3284 14.1957C27.5405 12.8375 26.7519 11.4794 26.3451 10.7645C26.1702 10.4576 26.2778 10.0656 26.5853 9.89131C26.8947 9.71642 27.2842 9.82469 27.4585 10.1315C27.864 10.8446 28.65 12.1988 29.4361 13.5531C30.1779 14.8312 30.9204 16.1099 31.3451 16.8543C31.5207 17.1611 31.4137 17.5532 31.1068 17.7281C31.0075 17.7857 30.898 17.8126 30.7904 17.8126Z" fill="white"/>
<path d="M26.7262 31.1928C26.7179 31.1928 26.7102 31.1928 26.7019 31.1928C26.2817 31.1902 25.4616 31.1896 24.4206 31.1896C21.0894 31.1883 15.514 31.1864 13.4743 31.1024C11.2058 31.0102 11.1834 28.7847 11.1751 27.9467C11.1539 25.8852 11.1892 22.4803 11.2129 20.2272L11.2257 18.9735C11.2289 18.6211 11.5152 18.3386 11.8663 18.3386C11.8682 18.3386 11.8701 18.3386 11.8721 18.3386C12.2257 18.3418 12.5101 18.6314 12.5069 18.985L12.4941 20.2406C12.4704 22.4886 12.4358 25.8858 12.4563 27.9345C12.4704 29.3484 12.7209 29.7898 13.5268 29.8225C15.5409 29.9051 21.1003 29.907 24.4219 29.9083C25.4661 29.9083 26.2887 29.909 26.7102 29.9115C27.1702 29.9275 27.5174 29.8032 27.7487 29.5733C28.1266 29.1979 28.2061 28.506 28.2061 27.9916C28.2061 27.178 28.1965 25.4752 28.1875 23.7654C28.1779 22.0126 28.1683 20.2522 28.1689 19.4354C28.1689 19.0811 28.4559 18.7947 28.8096 18.7947C29.1638 18.7947 29.4502 19.0817 29.4502 19.4354C29.4495 20.2509 29.4598 22.0081 29.4688 23.7583C29.4784 25.4707 29.4873 27.1767 29.4873 27.9909C29.4873 29.0928 29.2067 29.9301 28.652 30.4817C28.1766 30.9538 27.5296 31.1928 26.7262 31.1928Z" fill="white"/>
<path d="M17.1021 31.1684C16.7562 31.1684 16.4718 30.8929 16.4621 30.5451C16.4186 28.9756 16.4416 27.4586 16.4673 26.3125C16.4846 25.5155 16.5666 24.6879 17.0426 24.0338C17.2059 23.8083 17.5371 23.529 18.6524 23.3573C20.0208 23.1478 22.4616 23.1427 23.3527 23.8019C24.2445 24.4611 24.3841 25.725 24.3886 26.4201C24.3924 27.0486 24.3912 27.7379 24.3892 28.4253C24.388 29.1287 24.386 29.8295 24.3905 30.4618C24.3931 30.8161 24.108 31.1044 23.7544 31.1069C23.7525 31.1069 23.7512 31.1069 23.7499 31.1069C23.3976 31.1069 23.1118 30.8231 23.1093 30.4708C23.1048 29.8353 23.1067 29.1299 23.108 28.4233C23.1099 27.7398 23.1112 27.053 23.1073 26.4284C23.1022 25.6654 22.9094 25.0684 22.5904 24.8326C21.9638 24.3688 18.6704 24.4483 18.0515 24.8262C17.8068 25.1972 17.7601 25.7731 17.7479 26.3413C17.7229 27.4727 17.6998 28.9685 17.7428 30.5105C17.753 30.8641 17.4743 31.1588 17.1201 31.1684C17.1143 31.1684 17.1079 31.1684 17.1021 31.1684Z" fill="white"/>
</g>
</svg>
